<svg xmlns="http://www.w3.org/2000/svg" viewBox="0 0 151.2 151.2" width="22px" height="22px"><path d="M0 0h151.2v151.2H0z" style="fill:#fff"/><path d="M87.86 150.67H20.73V71.7c0-3.96 3.41-7.18 7.61-7.18h51.71c4.3 0 7.8 3.3 7.8 7.36v78.8Zm-58.44-8.19h49.76V72.71H29.41v69.78Z"/><path d="M128.59 150.67H79.4V72.48H54.21V13.22c0-3.99 3.41-7.24 7.61-7.24h58.97c4.3 0 7.8 3.33 7.8 7.42v137.27Zm-40.51-8.19h31.82V14.17h-57V64.3h17.39c4.3 0 7.8 3.33 7.8 7.42v70.77Z"/><path d="M109.45 34.52H73.36c-2.4 0-4.34-1.83-4.34-4.1s1.94-4.1 4.34-4.1h36.09c2.4 0 4.34 1.83 4.34 4.1s-1.94 4.1-4.34 4.1ZM109.45 53.16H73.36c-2.4 0-4.34-1.83-4.34-4.1s1.94-4.1 4.34-4.1h36.09c2.4 0 4.34 1.83 4.34 4.1s-1.94 4.1-4.34 4.1ZM68.23 91.4H39.64c-2.4 0-4.34-1.83-4.34-4.1s1.94-4.1 4.34-4.1h28.59c2.4 0 4.34 1.83 4.34 4.1s-1.94 4.1-4.34 4.1ZM68.23 110.04H39.64c-2.4 0-4.34-1.83-4.34-4.1s1.94-4.1 4.34-4.1h28.59c2.4 0 4.34 1.83 4.34 4.1s-1.94 4.1-4.34 4.1ZM68.23 129.82H39.64c-2.4 0-4.34-1.83-4.34-4.1s1.94-4.1 4.34-4.1h28.59c2.4 0 4.34 1.83 4.34 4.1s-1.94 4.1-4.34 4.1ZM109.45 72.28H73.36c-2.4 0-4.34-1.83-4.34-4.1s1.94-4.1 4.34-4.1h36.09c2.4 0 4.34 1.83 4.34 4.1s-1.94 4.1-4.34 4.1ZM109.45 90.92H85.26c-2.4 0-4.34-1.83-4.34-4.1s1.94-4.1 4.34-4.1h24.19c2.4 0 4.34 1.83 4.34 4.1s-1.94 4.1-4.34 4.1ZM109.45 110.37H85.26c-2.4 0-4.34-1.83-4.34-4.1s1.94-4.1 4.34-4.1h24.19c2.4 0 4.34 1.83 4.34 4.1s-1.94 4.1-4.34 4.1ZM109.45 129.82H85.26c-2.4 0-4.34-1.83-4.34-4.1s1.94-4.1 4.34-4.1h24.19c2.4 0 4.34 1.83 4.34 4.1s-1.94 4.1-4.34 4.1Z"/></svg>