<svg xmlns="http://www.w3.org/2000/svg" viewBox="0 0 151.2 151.2" width="22px" height="22px"><path d="M0 0h151.2v151.2H0z" style="fill:#fff"/><path d="M142.84 88.88c-.16.22-.34.44-.49.67-1.08 1.67-2.6 2.41-4.22 2.05-1.71-.38-3.01-1.96-3.18-3.89-.04-.46-.02-.92-.02-1.38V67.6c-3.73 1.43-7.22 2.75-10.7 4.1-1.77.69-4.22.96-5.08 2.27-.91 1.39-.36 3.78-.37 5.73-.02 8.37-.1 16.74.03 25.1.06 3.99-1.61 6.84-4.77 9.03-3.82 2.65-8.15 4.04-12.59 5.12-12.97 3.15-26.16 3.67-39.42 2.94-8.56-.47-17.04-1.55-25.18-4.33-2.97-1.01-5.83-2.5-8.49-4.17-2.89-1.82-4.27-4.6-4.23-8.2.12-9.92.02-19.85.07-29.78 0-1.22-.34-1.81-1.52-2.25-6.48-2.43-12.92-4.95-19.38-7.44-2.2-.84-3.3-2.16-3.3-3.95 0-1.76 1.11-3.1 3.32-3.95 21.63-8.34 43.27-16.66 64.89-25.02 2.16-.83 4.18-.9 6.37-.05 21.62 8.36 43.26 16.69 64.91 24.97 1.76.67 2.52 2.03 3.34 3.46v27.7ZM15.17 61.72c.75.33 1.26.59 1.79.79 17.54 6.75 35.08 13.48 52.6 20.26 1.34.52 2.44.54 3.78.02 14.19-5.51 28.4-10.95 42.6-16.42 3.86-1.49 7.72-2.98 11.83-4.58-.58-.27-.86-.43-1.16-.55-18.03-6.93-36.05-13.87-54.09-20.75-.66-.25-1.59-.18-2.27.07-11.96 4.55-23.9 9.15-35.84 13.74-6.33 2.43-12.66 4.87-19.23 7.4Zm16.9 15.07v2.25c0 8.36.07 16.73-.05 25.09-.03 1.83.55 3.1 2.12 3.72 3.52 1.39 7.02 3.04 10.7 3.83 17.39 3.71 34.85 3.53 52.28.21 4.26-.81 8.41-2.01 12.14-4.37 1.15-.73 1.72-1.58 1.7-3.08-.09-8.54-.04-17.07-.05-25.61 0-.6-.05-1.19-.08-1.93-.8.29-1.4.49-1.98.71-11.68 4.48-23.36 8.94-35.02 13.47-1.61.62-3.06.65-4.67.02-8.37-3.29-16.76-6.51-25.15-9.74-3.86-1.49-7.73-2.96-11.92-4.57Z"/></svg>